<svg width="20" height="16" viewBox="0 0 20 16" fill="none" xmlns="http://www.w3.org/2000/svg">
<g clip-path="url(#clip0_1_1593)">
<path d="M10 16C12.1217 16 14.1566 15.1571 15.6569 13.6569C17.1571 12.1566 18 10.1217 18 8C18 5.87827 17.1571 3.84344 15.6569 2.34315C14.1566 0.842855 12.1217 0 10 0C7.87827 0 5.84344 0.842855 4.34315 2.34315C2.84285 3.84344 2 5.87827 2 8C2 10.1217 2.84285 12.1566 4.34315 13.6569C5.84344 15.1571 7.87827 16 10 16ZM11.5844 10.1594L7.075 11.8938C6.46875 12.1281 5.87187 11.5312 6.10625 10.925L7.84062 6.41563C7.94375 6.15 8.15 5.94375 8.41563 5.84062L12.925 4.10625C13.5312 3.87187 14.1281 4.46875 13.8938 5.075L12.1594 9.58438C12.0594 9.85 11.85 10.0563 11.5844 10.1594ZM11 8C11 7.73478 10.8946 7.48043 10.7071 7.29289C10.5196 7.10536 10.2652 7 10 7C9.73478 7 9.48043 7.10536 9.29289 7.29289C9.10536 7.48043 9 7.73478 9 8C9 8.26522 9.10536 8.51957 9.29289 8.70711C9.48043 8.89464 9.73478 9 10 9C10.2652 9 10.5196 8.89464 10.7071 8.70711C10.8946 8.51957 11 8.26522 11 8Z" fill="currentColor"/>
</g>
<defs>
<clipPath id="clip0_1_1593">
<rect width="16" height="16" fill="white" transform="translate(2)"/>
</clipPath>
</defs>
</svg>
