<svg width="20" height="16" viewBox="0 0 20 16" fill="none" xmlns="http://www.w3.org/2000/svg">
<g clip-path="url(#clip0_1_1608)">
<path d="M12.7812 1.22187L16.775 5.2625C18.4125 6.91875 18.4125 9.58125 16.775 11.2375L13.275 14.7781C12.9844 15.0719 12.5094 15.075 12.2156 14.7844C11.9219 14.4938 11.9188 14.0188 12.2094 13.725L15.7063 10.1844C16.7656 9.1125 16.7656 7.39062 15.7063 6.31875L11.7156 2.27813C11.425 1.98438 11.4281 1.50937 11.7219 1.21875C12.0156 0.928125 12.4906 0.93125 12.7812 1.225V1.22187ZM2 7.17188V2.5C2 1.67188 2.67188 1 3.5 1H8.17188C8.70312 1 9.2125 1.20938 9.5875 1.58438L14.8375 6.83437C15.6187 7.61562 15.6187 8.88125 14.8375 9.6625L10.6656 13.8344C9.88437 14.6156 8.61875 14.6156 7.8375 13.8344L2.5875 8.58438C2.20937 8.20938 2 7.70312 2 7.17188ZM6.5 4.5C6.5 4.23478 6.39464 3.98043 6.20711 3.79289C6.01957 3.60536 5.76522 3.5 5.5 3.5C5.23478 3.5 4.98043 3.60536 4.79289 3.79289C4.60536 3.98043 4.5 4.23478 4.5 4.5C4.5 4.76522 4.60536 5.01957 4.79289 5.20711C4.98043 5.39464 5.23478 5.5 5.5 5.5C5.76522 5.5 6.01957 5.39464 6.20711 5.20711C6.39464 5.01957 6.5 4.76522 6.5 4.5Z" fill="currentColor"/>
</g>
<defs>
<clipPath id="clip0_1_1608">
<rect width="16" height="16" fill="white" transform="translate(2)"/>
</clipPath>
</defs>
</svg>
