<svg width="14" height="12" viewBox="0 0 14 12" fill="none" xmlns="http://www.w3.org/2000/svg">
<g clip-path="url(#clip0_21_95)">
<path d="M13.3805 8.72578C13.1156 9.05859 12.4711 9.29531 12.4711 9.29531L7.66408 11.0203V9.74766L11.2008 8.48672C11.6016 8.34375 11.6649 8.13984 11.3367 8.03203C11.011 7.92422 10.4203 7.95469 10.0195 8.1L7.66408 8.93203V7.61016C8.20783 7.42734 8.76798 7.29141 9.43829 7.21641C10.3969 7.11094 11.5688 7.23047 12.4899 7.57969C13.5258 7.90781 13.643 8.39297 13.3805 8.72578ZM8.12111 6.55781V3.3C8.12111 2.91797 8.05079 2.56641 7.6922 2.46562C7.41798 2.37656 7.24689 2.63203 7.24689 3.01406V11.168L5.04845 10.4695V0.75C5.98361 0.923438 7.34533 1.33359 8.07658 1.57969C9.93986 2.21953 10.5703 3.01641 10.5703 4.80937C10.5703 6.55547 9.4922 7.21875 8.12111 6.55781ZM1.01251 9.61406C-0.0515491 9.31406 -0.229674 8.68828 0.255482 8.32969C0.703138 7.99687 1.4672 7.74609 1.4672 7.74609L4.61954 6.62578V7.90313L2.35079 8.71406C1.95001 8.85703 1.88908 9.06094 2.21486 9.16875C2.54064 9.27656 3.13126 9.24609 3.53204 9.10078L4.61954 8.70469V9.84844C3.41017 10.0664 2.24298 10.0195 1.01251 9.61406Z" fill="currentColor"/>
</g>
<defs>
<clipPath id="clip0_21_95">
<rect width="13.5" height="12" fill="white"/>
</clipPath>
</defs>
</svg>
