<svg width="15" height="20" viewBox="0 0 15 20" fill="none" xmlns="http://www.w3.org/2000/svg">
<path d="M0 1.875C0 0.839844 0.839844 0 1.875 0V1.875V17.2422L6.95703 13.6133C7.28125 13.3789 7.72266 13.3789 8.04688 13.6133L13.125 17.2422V1.875H1.875V0H13.125C14.1602 0 15 0.839844 15 1.875V19.0625C15 19.4141 14.8047 19.7344 14.4922 19.8945C14.1797 20.0547 13.8047 20.0273 13.5195 19.8242L7.5 15.5273L1.48047 19.8242C1.19531 20.0273 0.820312 20.0547 0.507812 19.8945C0.195312 19.7344 0 19.4141 0 19.0625V1.875Z" fill="currentColor"/>
</svg>
