<svg width="20" height="16" viewBox="0 0 20 16" fill="none" xmlns="http://www.w3.org/2000/svg">
<g clip-path="url(#clip0_1_1603)">
<path d="M7.97813 0.168753C8.22188 -0.0593715 8.6 -0.0562465 8.84375 0.171878C9.70625 0.981253 10.5156 1.85313 11.2719 2.79688C11.6156 2.34688 12.0063 1.85625 12.4281 1.45625C12.675 1.225 13.0563 1.225 13.3031 1.45938C14.3844 2.49063 15.3 3.85313 15.9438 5.14688C16.5781 6.42188 17 7.725 17 8.64375C17 12.6313 13.8813 16 10 16C6.075 16 3 12.6281 3 8.64063C3 7.44063 3.55625 5.975 4.41875 4.525C5.29063 3.05313 6.52188 1.51875 7.97813 0.168753ZM10.0531 13C10.8438 13 11.5437 12.7813 12.2031 12.3438C13.5188 11.425 13.8719 9.5875 13.0813 8.14375C12.9406 7.8625 12.5813 7.84375 12.3781 8.08125L11.5906 8.99688C11.3844 9.23438 11.0125 9.22813 10.8187 8.98125C10.3031 8.325 9.38125 7.15313 8.85625 6.4875C8.65937 6.2375 8.28437 6.23438 8.08437 6.48438C7.02812 7.8125 6.49688 8.65 6.49688 9.59063C6.5 11.7313 8.08125 13 10.0531 13Z" fill="currentColor"/>
</g>
<defs>
<clipPath id="clip0_1_1603">
<rect width="14" height="16" fill="white" transform="translate(3)"/>
</clipPath>
</defs>
</svg>
