<svg width="12" height="12" viewBox="0 0 12 12" fill="none" xmlns="http://www.w3.org/2000/svg">
<g clip-path="url(#clip0_21_100)">
<path d="M8.66955 7.45786C9.70783 8.73051 10.186 9.77348 9.94455 10.2399C9.75939 10.5938 8.61565 11.2852 7.77424 11.55C7.08049 11.768 6.17111 11.8618 5.42111 11.7891C4.5258 11.7024 3.61877 11.3813 2.84064 10.875C2.18674 10.4485 2.03908 10.2727 2.03908 9.92348C2.03908 9.2227 2.81018 7.99457 4.12971 6.59301C4.87971 5.79848 5.92268 4.86567 6.03752 4.89145C6.25783 4.94067 8.0133 6.65161 8.66955 7.45786ZM4.42033 3.37036C3.72424 2.73989 3.05861 2.10707 2.39533 1.88442C2.03908 1.76489 2.0133 1.77192 1.72268 2.07426C1.0383 2.78676 0.46877 3.94223 0.309395 4.94301C0.182832 5.74457 0.166426 5.96957 0.210957 6.36098C0.342207 7.54457 0.616426 8.36254 1.16018 9.19457C1.38283 9.53676 1.44377 9.60004 1.37814 9.42661C1.27971 9.16879 1.37111 8.5477 1.6008 7.92661C1.93596 7.01254 2.86408 5.28051 4.42033 3.37036ZM11.7235 4.85864C11.3274 2.98364 10.1414 1.80473 9.97502 1.80473C9.80393 1.80473 9.40783 1.95707 9.13127 2.13051C8.58518 2.47036 8.17033 2.86645 7.62424 3.36801C8.61799 4.61723 10.0196 6.6352 10.5047 8.10942C10.6641 8.59457 10.7321 9.0727 10.6781 9.3352C10.6383 9.53442 10.6383 9.53442 10.711 9.44301C10.8539 9.26254 11.1774 8.70942 11.3063 8.42348C11.4797 8.04379 11.6578 7.48129 11.7422 7.0477C11.843 6.52036 11.8336 5.38832 11.7235 4.85864ZM3.31174 1.00786C4.42971 0.949262 5.88283 1.81645 5.99064 1.83754C6.00705 1.83989 6.2344 1.73911 6.4969 1.6102C7.99455 0.881293 8.70002 1.00551 9.01408 1.01957C7.51643 0.098481 5.43518 -0.1523 3.53205 0.745356C2.98361 1.00551 2.96955 1.02426 3.31174 1.00786Z" fill="currentColor"/>
</g>
<defs>
<clipPath id="clip0_21_100">
<rect width="12" height="12" fill="white"/>
</clipPath>
</defs>
</svg>
